PathFileType	4	(X/Y/Z)	E:\Marcel_BSc\Ayumi_22_01_2025\22-01-2025\conv_dl_2.trc
DataRate	CameraRate	NumFrames	NumMarkers	Units	OrigDataRate	OrigDataStartFrame	OrigNumFrames
200.0	200.0	4	48	mm	200.0	868	2314	
Frame#	Time	FHD			LBHD			RBHD			RBAR			LBAR			RSACR			LSACR			LASI			USACR			LTHI2			C7			CLAV			T10			RSHO			LSHO			LTHI1			LTHI3			LTIB1			LTIB2			LTIB3			LMMAL			LLMAL			LHEE			LMT1			LMT5			LMT3			RTHI1			RTHI2			RTHI3			RTIB1			RTIB3			RTIB2			RLMAL			RMMAL			RHEE			RMT5			RMT1			RMT3			LDUPA			LMUPA			LUUPA			LRAD			RUL			RRAD			RUFIN			RMUPA			RDUPA			RUUPA			
		X1	Y1	Z1	X2	Y2	Z2	X3	Y3	Z3	X4	Y4	Z4	X5	Y5	Z5	X6	Y6	Z6	X7	Y7	Z7	X8	Y8	Z8	X9	Y9	Z9	X10	Y10	Z10	X11	Y11	Z11	X12	Y12	Z12	X13	Y13	Z13	X14	Y14	Z14	X15	Y15	Z15	X16	Y16	Z16	X17	Y17	Z17	X18	Y18	Z18	X19	Y19	Z19	X20	Y20	Z20	X21	Y21	Z21	X22	Y22	Z22	X23	Y23	Z23	X24	Y24	Z24	X25	Y25	Z25	X26	Y26	Z26	X27	Y27	Z27	X28	Y28	Z28	X29	Y29	Z29	X30	Y30	Z30	X31	Y31	Z31	X32	Y32	Z32	X33	Y33	Z33	X34	Y34	Z34	X35	Y35	Z35	X36	Y36	Z36	X37	Y37	Z37	X38	Y38	Z38	X39	Y39	Z39	X40	Y40	Z40	X41	Y41	Z41	X42	Y42	Z42	X43	Y43	Z43	X44	Y44	Z44	X45	Y45	Z45	X46	Y46	Z46	X47	Y47	Z47	X48	Y48	Z48	
868	4.33	-170.0983	967.09961	-630.17169	-152.51451	967.40173	-567.44159	-113.54093	965.02838	-694.88989	191.09982	238.87714	-1724.2906	156.90103	250.16891	498.00671	516.8454	748.25977	-641.83002	508.77191	750.83795	-569.68475				501.72861	754.22302	-606.73523	250.36156	499.6944	-417.56512	94.27282	931.45953	-601.90558	82.654968	774.6012	-610.3631	348.12247	834.31073	-611.24323	59.109917	797.74567	-750.61902	72.97242	802.76752	-452.64908	316.30502	502.54321	-407.95959	274.25162	455.14996	-424.16049	212.66718	220.758	-424.69473	268.26642	233.05746	-419.80038	253.45364	168.77211	-429.17151	280.60724	74.344376	-517.65997	299.40503	72.148544	-441.38882	342.73746	36.210926	-488.98697	144.79832	44.875435	-472.18304	174.62477	27.446739	-397.49606	147.79962	41.708855	-437.09659	345.46634	494.07779	-822.45117	279.93796	495.4996	-823.95251	299.5036	449.32919	-807.29016	225.14851	257.48428	-818.79108	258.6944	202.96727	-805.9729	275.18652	265.13815	-819.24139	305.79468	74.137466	-778.12598	269.28418	79.513397	-706.74878	348.39792	32.01046	-727.80542	178.73239	32.972263	-818.77692	149.46634	41.53735	-758.4649	156.98767	39.98431	-788.72357	198.83336	642.646	-374.85199	149.96367	636.32013	-383.62711	142.18295	697.59247	-386.81714	197.21056	316.93011	-330.65912	133.35454	314.1879	-905.62323	135.00984	309.09052	-842.32159	134.36542	234.11377	-841.11078	119.46603	715.7959	-836.50623	132.35689	657.76727	-855.81329	165.04352	729.93909	-849.4455
869	4.335	-168.5515	969.81482	-630.18622	-151.40909	969.99695	-567.26282	-111.95143	967.10443	-694.90045	190.77202	238.76102	-1724.3817	156.65363	250.10234	498.04086	516.72949	746.98096	-642.15027	508.74741	749.5752	-569.86639				501.73468	752.89404	-606.94708	250.03064	499.17792	-417.50507	95.154457	931.41064	-601.8667	82.780968	774.59125	-610.34479	348.3075	833.18854	-611.47461	59.520653	797.86816	-750.59583	73.422989	803.01355	-452.59329	315.52606	502.70511	-407.37195	273.65518	454.76593	-424.02164	212.45518	220.61122	-424.52893	267.90189	233.0858	-419.68732	253.15053	168.7473	-429.13733	280.54303	74.357513	-517.67108	298.1373	71.193848	-441.43015	342.82047	36.359596	-489.00821	144.79263	44.87682	-472.17169	174.61934	27.438253	-397.49615	147.79413	41.727371	-437.08807	344.40677	493.71698	-822.72821	279.32513	495.02011	-824.31085	298.61755	448.8298	-807.56543	224.61668	257.17664	-818.93671	258.27115	202.76682	-806.06097	275.05838	265.31396	-820.21082	305.69104	74.135498	-778.20343	269.21976	79.493073	-706.77405	348.39822	32.017586	-727.81824	178.41544	32.842793	-818.70941	149.46606	41.521862	-758.47034	156.97928	39.986645	-788.7276	199.15169	642.76971	-374.72418	150.29245	636.453	-383.60983	142.55849	697.69659	-386.83292	196.92892	316.9563	-330.67584	133.09735	314.25977	-905.57495	134.80942	309.12503	-842.28137	134.14816	234.11647	-841.1239	119.84778	715.88324	-836.49182	132.72685	657.79993	-855.85223	165.52191	729.9762	-849.34088
870	4.34	-166.98619	972.44482	-630.17816	-149.92076	972.34717	-567.23285	-110.39078	969.16644	-694.90997	190.30083	239.00508	-1724.7202	156.54199	250.04211	497.93518	516.73199	745.5791	-642.26935	508.74573	748.2038	-570.13666				501.74738	751.56738	-607.17126	249.67119	498.7511	-417.4332	96.041756	931.29138	-601.88086	82.911621	774.6156	-610.28699	348.74768	832.28381	-611.5127	59.822605	798.11249	-750.66327	73.954102	803.29114	-452.57443	315.17676	502.06906	-407.39386	273.11826	454.31717	-423.94434	212.16737	220.52048	-424.41415	267.49826	233.14197	-419.60364	252.86311	168.71152	-429.10416	280.4787	74.317047	-517.66095	298.04346	71.11776	-441.43488	342.82019	36.385098	-489.00632	144.79219	44.870991	-472.15894	174.64227	27.410109	-397.48776	147.79974	41.713787	-437.06503	343.71951	493.00073	-822.94012	278.61972	494.53745	-824.6908	297.78598	448.2756	-807.79089	223.95192	257.08792	-819.01733	257.83337	202.63429	-806.15735	274.00095	264.85046	-819.55798	305.54388	74.132889	-778.25928	269.12067	79.454987	-706.76208	348.37918	32.057312	-727.82526	178.38959	32.885399	-818.75598	149.45723	41.521736	-758.46954	156.77499	39.976967	-788.7666	199.44209	642.83295	-374.61151	150.61794	636.64709	-383.56226	143.01213	697.90002	-386.77136	196.6507	316.97366	-330.67883	132.85687	314.29755	-905.55566	134.50381	308.98184	-842.75916	133.90018	234.16347	-841.06763	120.33287	715.8537	-836.53027	133.07579	657.836	-855.8136	166.02591	729.84753	-849.25177
871	4.345	-165.43114	975.0282	-630.25055	-148.37589	974.55188	-567.26874	-108.79588	971.18005	-694.96704	190.10179	238.92503	-1724.735	156.31726	250.02155	497.97153	516.67224	744.25079	-642.51337	508.79092	746.95624	-570.35602				501.75171	750.27594	-607.46326	249.28162	498.28891	-417.39047	96.967812	931.18512	-601.8949	83.035095	774.65186	-610.27875	348.87582	831.242	-611.745	60.22506	798.21906	-750.82275	74.517754	803.61432	-452.50644	314.88705	501.36386	-407.36948	272.67917	453.62531	-423.94907	211.83986	220.49808	-424.28336	267.11078	233.14011	-419.53992	252.52017	168.66624	-429.07333	280.41388	74.304932	-517.64294	297.97208	71.108841	-441.40027	342.80551	36.382759	-489.01492	144.79158	44.871891	-472.1438	174.66222	27.404881	-397.47702	147.79776	41.733532	-437.0686	342.97437	492.28513	-823.15967	277.4339	494.76962	-824.54602	296.93225	447.58426	-808.11469	223.40868	256.82181	-819.12183	257.34033	202.53647	-806.26984	273.37598	264.74268	-819.7218	305.43527	74.127327	-778.32416	269.04611	79.420631	-706.78003	348.36359	32.037258	-727.82269	178.36421	32.902298	-818.76636	149.4501	41.519299	-758.45563	156.77116	39.964378	-788.7746	199.72833	642.87689	-374.49637	150.88568	636.7345	-383.5946	143.39195	698.08173	-386.75372	196.40192	317.00958	-330.68201	132.62552	314.31314	-905.54041	134.24524	309.01138	-842.72443	133.68272	234.18182	-841.04358	120.70161	715.95142	-836.52051	133.40724	657.81946	-855.8183	166.40175	729.86487	-849.15454
